<?xml version="1.0" standalone="no"?>
<!DOCTYPE svg PUBLIC "-//W3C//DTD SVG 20010904//EN"
 "http://www.w3.org/TR/2001/REC-SVG-20010904/DTD/svg10.dtd">
<svg version="1.0" xmlns="http://www.w3.org/2000/svg"
 width="1em" height="1em" viewBox="0 0 512.000000 512.000000"
 preserveAspectRatio="xMidYMid meet">

<g transform="translate(0.000000,512.000000) scale(0.100000,-0.100000)"
fill="currentColor" stroke="none">
<path d="M1055 5103 c-290 -62 -519 -294 -579 -585 -14 -69 -16 -283 -16
-1958 0 -2057 -3 -1953 57 -2095 75 -178 230 -333 409 -408 141 -60 50 -57
1974 -57 l1760 0 0 2560 0 2560 -1767 -1 c-1531 -1 -1777 -3 -1838 -16z m305
-1942 l0 -1658 -142 -5 c-127 -5 -154 -9 -238 -37 -52 -18 -123 -50 -157 -71
l-63 -39 0 1529 c0 1086 3 1544 11 1582 18 87 58 158 123 223 98 98 192 133
364 134 l102 1 0 -1659z m3000 -1 l0 -1660 -1350 0 -1350 0 0 1660 0 1660
1350 0 1350 0 0 -1660z m0 -2110 l0 -150 -1575 0 -1575 0 0 -150 0 -150 1575
0 1575 0 0 -150 0 -150 -1595 0 c-1150 0 -1609 3 -1647 11 -86 19 -158 59
-223 124 -137 136 -171 336 -88 513 32 70 130 169 199 202 105 50 44 48 1752
49 l1602 1 0 -150z"/>
<path d="M2560 4200 l0 -300 -300 0 -300 0 0 -450 0 -450 300 0 300 0 0 -300
0 -300 450 0 450 0 0 300 0 300 300 0 300 0 0 450 0 450 -300 0 -300 0 0 300
0 300 -450 0 -450 0 0 -300z m600 -300 l0 -300 300 0 300 0 0 -150 0 -150
-300 0 -300 0 0 -300 0 -300 -150 0 -150 0 0 300 0 300 -300 0 -300 0 0 150 0
150 300 0 300 0 0 300 0 300 150 0 150 0 0 -300z"/>
<path d="M2260 1950 l0 -150 750 0 750 0 0 150 0 150 -750 0 -750 0 0 -150z"/>
</g>
</svg>
