<?xml version="1.0" standalone="no"?>
<!DOCTYPE svg PUBLIC "-//W3C//DTD SVG 20010904//EN"
 "http://www.w3.org/TR/2001/REC-SVG-20010904/DTD/svg10.dtd">
<svg version="1.0" xmlns="http://www.w3.org/2000/svg"
 width="1em" height="1em" viewBox="0 0 512.000000 512.000000"
 preserveAspectRatio="xMidYMid meet">

<g transform="translate(0.000000,512.000000) scale(0.100000,-0.100000)"
fill="currentColor" stroke="none">
<path d="M1080 5115 c-8 -2 -49 -9 -90 -15 -232 -38 -459 -157 -636 -334 -169
-170 -279 -370 -330 -606 -18 -81 -19 -159 -19 -1595 0 -1638 -3 -1556 56
-1737 58 -179 155 -335 293 -474 139 -138 295 -235 474 -293 178 -58 139 -56
1283 -56 l1055 0 41 27 c62 41 88 90 88 168 0 78 -26 127 -88 168 l-41 27
-1050 5 c-1137 6 -1067 3 -1215 59 -182 69 -374 261 -441 439 -59 156 -55 42
-55 1662 0 1620 -4 1506 55 1662 71 191 266 377 469 449 144 51 124 50 1676
47 1581 -3 1460 1 1617 -58 79 -29 195 -107 263 -177 71 -70 146 -184 175
-261 58 -154 54 -78 60 -1222 5 -1032 5 -1056 25 -1089 11 -19 37 -48 58 -65
36 -29 44 -31 117 -31 72 0 81 2 117 31 21 16 48 50 61 75 l23 44 -4 1065 c-3
958 -5 1072 -20 1133 -119 482 -445 813 -917 930 -84 21 -94 21 -1585 23 -825
1 -1507 1 -1515 -1z"/>
<path d="M1161 4113 c-88 -31 -161 -136 -161 -233 0 -132 118 -250 250 -250
60 0 130 30 175 75 188 188 -12 497 -264 408z"/>
<path d="M2022 4049 c-47 -14 -109 -79 -123 -131 -23 -89 12 -182 88 -229 l38
-24 980 0 980 0 38 24 c21 13 50 42 65 64 23 34 27 52 27 107 0 55 -4 73 -27
107 -15 22 -44 51 -65 64 l-38 24 -965 2 c-591 1 -978 -2 -998 -8z"/>
<path d="M1132 3249 c-47 -14 -109 -79 -123 -131 -23 -89 12 -182 88 -229 l38
-24 1425 0 1425 0 38 24 c21 13 50 42 65 64 23 34 27 52 27 107 0 55 -4 73
-27 107 -15 22 -44 51 -65 64 l-38 24 -1410 2 c-872 1 -1423 -2 -1443 -8z"/>
<path d="M1132 2449 c-47 -14 -109 -80 -123 -131 -23 -89 12 -182 88 -229 l38
-24 425 0 425 0 38 24 c21 13 50 42 65 64 23 34 27 52 27 107 0 55 -4 73 -27
107 -15 22 -44 51 -65 64 l-38 24 -410 2 c-241 1 -424 -2 -443 -8z"/>
<path d="M2792 2449 c-66 -19 -132 -111 -132 -184 0 -48 131 -680 160 -770 60
-187 150 -346 281 -500 95 -112 814 -826 869 -862 68 -46 137 -79 220 -104
107 -34 292 -34 400 0 250 77 423 250 501 501 34 108 34 293 0 400 -57 182
-76 207 -515 648 -399 402 -480 476 -611 561 -190 124 -328 170 -765 257 -337
66 -353 68 -408 53z m505 -480 c162 -33 266 -65 346 -105 141 -72 189 -113
605 -528 473 -471 467 -463 467 -606 -1 -65 -6 -96 -22 -132 -30 -66 -96 -133
-162 -165 -48 -24 -68 -28 -141 -28 -143 0 -135 -6 -606 467 -415 416 -456
464 -528 605 -40 80 -72 184 -105 346 -35 169 -36 177 -16 177 8 0 81 -14 162
-31z"/>
</g>
</svg>
