<?xml version="1.0" standalone="no"?>
<!DOCTYPE svg PUBLIC "-//W3C//DTD SVG 20010904//EN"
 "http://www.w3.org/TR/2001/REC-SVG-20010904/DTD/svg10.dtd">
<svg version="1.0" xmlns="http://www.w3.org/2000/svg"
 width="1em" height="1em" viewBox="0 0 512.000000 512.000000"
 preserveAspectRatio="xMidYMid meet">

<g transform="translate(0.000000,512.000000) scale(0.100000,-0.100000)"
fill="currentColor" stroke="none">
<path d="M1700 5115 c-8 -2 -49 -9 -90 -15 -169 -28 -359 -110 -502 -218 -96
-72 -799 -769 -868 -861 -95 -126 -180 -314 -216 -481 -18 -80 -19 -151 -19
-1285 0 -1301 -2 -1248 56 -1427 58 -179 155 -335 293 -474 139 -138 295 -235
474 -293 179 -58 126 -56 1427 -56 1134 0 1205 1 1285 19 159 35 300 95 440
189 51 34 189 163 430 401 195 193 379 378 408 411 134 148 232 345 278 555
18 80 19 151 19 1285 0 1301 2 1248 -56 1427 -59 182 -155 337 -298 478 -165
164 -347 265 -581 323 -84 21 -101 21 -1275 23 -654 1 -1197 1 -1205 -1z
m2410 -417 c220 -66 367 -172 481 -346 49 -75 78 -141 107 -247 15 -54 17
-169 17 -1240 0 -1113 -1 -1184 -18 -1245 -26 -92 -86 -215 -140 -286 -25 -33
-203 -215 -394 -405 -370 -366 -433 -418 -571 -471 -152 -59 -122 -58 -1342
-58 -1205 0 -1185 -1 -1332 53 -194 71 -389 259 -458 445 -58 155 -55 72 -55
1357 0 1113 1 1184 18 1245 26 92 86 215 140 286 25 33 203 215 394 405 371
366 433 418 571 472 149 57 108 56 1367 54 1050 -2 1165 -4 1215 -19z"/>
<path d="M4033 4289 c-18 -5 -75 -49 -127 -98 -114 -107 -162 -141 -269 -191
-172 -79 -81 -74 -1312 -80 l-1100 -5 -38 -24 c-21 -13 -50 -42 -65 -64 -23
-34 -27 -52 -27 -107 0 -55 4 -73 27 -107 15 -22 44 -51 65 -64 l38 -24 1110
0 c1038 0 1115 1 1193 18 252 56 455 166 649 354 84 81 103 106 113 143 34
128 -45 246 -171 255 -30 3 -69 0 -86 -6z"/>
<path d="M3642 3099 c-46 -14 -109 -80 -122 -128 -7 -27 -10 -317 -8 -923 l3
-883 24 -38 c13 -21 42 -50 64 -65 34 -23 52 -27 107 -27 55 0 73 4 107 27 22
15 51 44 64 65 l24 38 0 905 0 905 -24 38 c-47 76 -151 113 -239 86z"/>
</g>
</svg>
