<?xml version="1.0" standalone="no"?>
<!DOCTYPE svg PUBLIC "-//W3C//DTD SVG 20010904//EN"
 "http://www.w3.org/TR/2001/REC-SVG-20010904/DTD/svg10.dtd">
<svg version="1.0" xmlns="http://www.w3.org/2000/svg"
 width="1em" height="1em" viewBox="0 0 304.000000 303.000000"
 preserveAspectRatio="xMidYMid meet">

<g transform="translate(0.000000,303.000000) scale(0.100000,-0.100000)"
fill="currentColor" stroke="none">
<path d="M534 2980 c-231 -60 -407 -227 -491 -465 l-28 -80 -3 -889 c-3 -1012
-5 -982 74 -1145 39 -81 60 -110 133 -182 71 -71 102 -94 181 -133 157 -77
154 -77 861 -74 l621 3 29 33 c23 26 29 42 29 78 0 39 -5 51 -34 80 l-34 34
-598 0 c-647 0 -669 2 -773 54 -62 32 -155 117 -186 171 -14 23 -35 68 -47
101 l-23 59 -3 835 c-2 548 1 859 8 905 29 192 180 357 363 395 36 7 324 10
927 8 l875 -3 58 -23 c126 -51 231 -159 279 -287 22 -59 22 -68 28 -692 l5
-633 25 -25 c50 -50 124 -49 171 1 l24 26 3 616 c3 696 2 714 -68 857 -93 191
-255 324 -458 376 -72 18 -118 19 -976 18 -847 0 -905 -1 -972 -19z"/>
<path d="M715 2420 c-74 -16 -115 -66 -115 -140 0 -116 119 -182 222 -122 32
19 68 80 68 116 0 92 -88 165 -175 146z"/>
<path d="M1154 2346 c-39 -39 -45 -86 -19 -136 32 -61 19 -60 638 -60 l564 0
34 23 c48 32 64 84 43 138 -29 72 -5 69 -650 69 l-576 0 -34 -34z"/>
<path d="M662 1903 c-83 -41 -82 -167 2 -207 31 -14 115 -16 845 -16 882 0
858 -1 895 55 23 36 24 93 2 127 -39 60 -8 58 -898 58 -730 0 -816 -2 -846
-17z"/>
<path d="M658 1434 c-53 -28 -73 -105 -43 -163 27 -53 70 -61 311 -61 234 0
263 5 302 55 42 54 19 145 -43 171 -51 21 -488 20 -527 -2z"/>
<path d="M2371 1075 l-186 -184 -176 174 c-120 120 -182 175 -197 175 -25 0
-62 -33 -62 -56 0 -8 78 -97 174 -197 l175 -182 -128 -130 c-171 -175 -221
-231 -221 -250 0 -22 37 -55 63 -55 16 0 74 51 197 175 l175 175 185 -185
c163 -162 190 -185 218 -185 41 0 67 36 53 71 -5 13 -91 105 -190 204 l-181
180 190 190 c105 105 190 198 190 206 0 30 -30 59 -62 59 -28 0 -56 -24 -217
-185z"/>
</g>
</svg>
