<?xml version="1.0" standalone="no"?>
<!DOCTYPE svg PUBLIC "-//W3C//DTD SVG 20010904//EN"
 "http://www.w3.org/TR/2001/REC-SVG-20010904/DTD/svg10.dtd">
<svg version="1.0" xmlns="http://www.w3.org/2000/svg"
 width="1em" height="1em" viewBox="0 0 512.000000 512.000000"
 preserveAspectRatio="xMidYMid meet">

<g transform="translate(0.000000,512.000000) scale(0.100000,-0.100000)"
fill="currentColor" stroke="none">
<path d="M1840 5109 c-614 -63 -1143 -378 -1481 -884 -75 -111 -198 -359 -238
-480 -149 -447 -156 -894 -20 -1322 138 -432 418 -798 809 -1056 177 -117 232
-138 308 -118 123 34 183 183 119 294 -21 35 -48 58 -138 113 -400 248 -663
609 -760 1043 -80 364 -26 777 147 1123 236 471 652 778 1184 875 131 24 429
24 557 0 595 -111 1053 -494 1270 -1061 38 -100 68 -139 128 -167 75 -35 168
-16 227 47 60 65 64 143 12 282 -292 783 -1082 1329 -1914 1321 -69 -1 -163
-6 -210 -10z"/>
<path d="M2017 4065 c-71 -25 -126 -100 -127 -172 0 -30 -4 -34 -85 -72 -188
-88 -295 -248 -295 -440 0 -133 43 -240 136 -340 92 -100 262 -170 412 -171
94 0 156 -42 156 -105 0 -43 -35 -82 -81 -91 -50 -9 -180 13 -301 51 -120 39
-156 42 -210 20 -129 -55 -163 -225 -65 -327 30 -32 95 -58 233 -97 l95 -27 6
-45 c13 -86 63 -148 137 -169 58 -16 94 -12 150 16 61 30 97 82 107 157 7 45
9 48 69 80 180 95 289 311 256 508 -16 96 -70 201 -139 269 -96 95 -250 159
-385 160 -102 0 -176 42 -176 100 0 113 130 130 369 46 87 -31 131 -32 186 -7
68 30 125 113 125 181 0 37 -24 93 -52 126 -36 41 -77 63 -174 94 l-72 23 -6
56 c-10 80 -44 133 -108 165 -58 29 -104 32 -161 11z"/>
<path d="M3907 3065 c-173 -61 -165 -326 11 -375 21 -6 162 -10 337 -10 268 0
304 -2 340 -19 51 -23 101 -79 114 -128 7 -23 11 -160 11 -341 0 -278 2 -306
19 -340 67 -130 231 -149 328 -39 52 59 55 87 51 446 -4 277 -7 334 -22 381
-71 219 -243 381 -452 425 -96 20 -681 21 -737 0z"/>
<path d="M4148 2354 c-27 -11 -140 -126 -409 -412 -204 -219 -390 -412 -413
-430 -113 -89 -258 -80 -396 25 -175 134 -429 177 -635 108 -168 -56 -166 -54
-842 -729 -561 -561 -623 -625 -633 -665 -40 -153 122 -296 266 -236 24 10
244 220 641 612 412 407 619 605 650 621 57 29 137 38 200 23 28 -7 88 -39
146 -78 111 -74 208 -115 317 -133 175 -29 375 20 523 127 51 38 791 818 831
877 107 158 -68 363 -246 290z"/>
<path d="M4840 1324 c-45 -20 -77 -50 -101 -96 -18 -35 -19 -65 -19 -555 0
-481 2 -521 19 -558 32 -71 104 -115 187 -115 54 0 131 47 162 98 l27 47 3
502 c2 339 -1 516 -8 543 -30 112 -165 179 -270 134z"/>
<path d="M4040 1094 c-45 -20 -77 -50 -101 -96 -18 -35 -19 -63 -19 -440 0
-369 2 -406 19 -443 32 -71 104 -115 187 -115 54 0 131 47 162 98 l27 47 3
387 c2 258 -1 400 -8 428 -30 112 -165 180 -270 134z"/>
<path d="M2435 821 c-48 -22 -79 -54 -100 -103 -12 -31 -15 -85 -15 -300 0
-234 2 -268 19 -303 32 -71 104 -115 187 -115 54 0 131 47 162 98 l27 47 3
251 c4 279 -1 314 -51 371 -61 69 -153 91 -232 54z"/>
<path d="M3240 654 c-45 -20 -77 -50 -101 -96 -17 -33 -19 -60 -19 -220 0
-156 3 -189 19 -223 32 -71 104 -115 187 -115 54 0 131 47 162 98 26 45 27 53
30 212 4 188 -4 233 -51 287 -59 67 -151 90 -227 57z"/>
</g>
</svg>
